<svg width="208" height="209" viewBox="0 0 208 209" fill="none" xmlns="http://www.w3.org/2000/svg">
<g opacity="0.3">
<path d="M0 0.5H5.62162V6.12162H0V0.5Z" fill="white"/>
<path d="M33.7297 0.5H39.3514V6.12162H33.7297V0.5Z" fill="white"/>
<path d="M67.4595 0.5H73.0811V6.12162H67.4595V0.5Z" fill="white"/>
<path d="M101.189 0.5H106.811V6.12162H101.189V0.5Z" fill="white"/>
<path d="M134.919 0.5H140.541V6.12162H134.919V0.5Z" fill="white"/>
<path d="M168.649 0.5H174.27V6.12162H168.649V0.5Z" fill="white"/>
<path d="M202.378 0.5H208V6.12162H202.378V0.5Z" fill="white"/>
<path d="M0 34.2297H5.62162V39.8514H0V34.2297Z" fill="white"/>
<path d="M33.7297 34.2297H39.3514V39.8514H33.7297V34.2297Z" fill="white"/>
<path d="M67.4595 34.2297H73.0811V39.8514H67.4595V34.2297Z" fill="white"/>
<path d="M101.189 34.2297H106.811V39.8514H101.189V34.2297Z" fill="white"/>
<path d="M134.919 34.2297H140.541V39.8514H134.919V34.2297Z" fill="white"/>
<path d="M168.649 34.2297H174.27V39.8514H168.649V34.2297Z" fill="white"/>
<path d="M202.378 34.2297H208V39.8514H202.378V34.2297Z" fill="white"/>
<path d="M0 67.9595H5.62162V73.5811H0V67.9595Z" fill="white"/>
<path d="M33.7297 67.9595H39.3514V73.5811H33.7297V67.9595Z" fill="white"/>
<path d="M67.4595 67.9595H73.0811V73.5811H67.4595V67.9595Z" fill="white"/>
<path d="M101.189 67.9595H106.811V73.5811H101.189V67.9595Z" fill="white"/>
<path d="M134.919 67.9595H140.541V73.5811H134.919V67.9595Z" fill="white"/>
<path d="M168.649 67.9595H174.27V73.5811H168.649V67.9595Z" fill="white"/>
<path d="M202.378 67.9595H208V73.5811H202.378V67.9595Z" fill="white"/>
<path d="M0 101.689H5.62162V107.311H0V101.689Z" fill="white"/>
<path d="M33.7297 101.689H39.3514V107.311H33.7297V101.689Z" fill="white"/>
<path d="M67.4595 101.689H73.0811V107.311H67.4595V101.689Z" fill="white"/>
<path d="M101.189 101.689H106.811V107.311H101.189V101.689Z" fill="white"/>
<path d="M134.919 101.689H140.541V107.311H134.919V101.689Z" fill="white"/>
<path d="M168.649 101.689H174.27V107.311H168.649V101.689Z" fill="white"/>
<path d="M202.378 101.689H208V107.311H202.378V101.689Z" fill="white"/>
<path d="M0 135.419H5.62162V141.041H0V135.419Z" fill="white"/>
<path d="M33.7297 135.419H39.3514V141.041H33.7297V135.419Z" fill="white"/>
<path d="M67.4595 135.419H73.0811V141.041H67.4595V135.419Z" fill="white"/>
<path d="M101.189 135.419H106.811V141.041H101.189V135.419Z" fill="white"/>
<path d="M134.919 135.419H140.541V141.041H134.919V135.419Z" fill="white"/>
<path d="M168.649 135.419H174.27V141.041H168.649V135.419Z" fill="white"/>
<path d="M202.378 135.419H208V141.041H202.378V135.419Z" fill="white"/>
<path d="M0 169.149H5.62162V174.77H0V169.149Z" fill="white"/>
<path d="M33.7297 169.149H39.3514V174.77H33.7297V169.149Z" fill="white"/>
<path d="M67.4595 169.149H73.0811V174.77H67.4595V169.149Z" fill="white"/>
<path d="M101.189 169.149H106.811V174.77H101.189V169.149Z" fill="white"/>
<path d="M134.919 169.149H140.541V174.77H134.919V169.149Z" fill="white"/>
<path d="M168.649 169.149H174.27V174.77H168.649V169.149Z" fill="white"/>
<path d="M202.378 169.149H208V174.77H202.378V169.149Z" fill="white"/>
<path d="M0 202.878H5.62162V208.5H0V202.878Z" fill="white"/>
<path d="M33.7297 202.878H39.3514V208.5H33.7297V202.878Z" fill="white"/>
<path d="M67.4595 202.878H73.0811V208.5H67.4595V202.878Z" fill="white"/>
<path d="M101.189 202.878H106.811V208.5H101.189V202.878Z" fill="white"/>
<path d="M134.919 202.878H140.541V208.5H134.919V202.878Z" fill="white"/>
<path d="M168.649 202.878H174.27V208.5H168.649V202.878Z" fill="white"/>
<path d="M202.378 202.878H208V208.5H202.378V202.878Z" fill="white"/>
</g>
</svg>
