<svg width="130" height="18" viewBox="0 0 130 18" fill="none" xmlns="http://www.w3.org/2000/svg">
<path d="M0 9.01198C0 7.34983 0.343618 5.87147 1.03086 4.57691C1.73407 3.26636 2.72497 2.25149 4.00355 1.53229C5.28213 0.797104 6.7525 0.429512 8.41466 0.429512C10.5243 0.429512 12.2983 0.996882 13.7367 2.13162C15.1751 3.25038 16.1021 4.77668 16.5177 6.71054H11.4593C11.1556 6.07125 10.7321 5.58379 10.1887 5.24816C9.66127 4.91253 9.04595 4.74472 8.34274 4.74472C7.25594 4.74472 6.38491 5.13629 5.72964 5.91942C5.09035 6.68656 4.7707 7.71742 4.7707 9.01198C4.7707 10.3225 5.09035 11.3694 5.72964 12.1525C6.38491 12.9196 7.25594 13.3032 8.34274 13.3032C9.04595 13.3032 9.66127 13.1354 10.1887 12.7998C10.7321 12.4641 11.1556 11.9767 11.4593 11.3374H16.5177C16.1021 13.2713 15.1751 14.8055 13.7367 15.9403C12.2983 17.059 10.5243 17.6184 8.41466 17.6184C6.7525 17.6184 5.28213 17.2588 4.00355 16.5396C2.72497 15.8044 1.73407 14.7896 1.03086 13.495C0.343618 12.1845 0 10.6901 0 9.01198Z" fill="#004EDA"/>
<path d="M28.4439 17.6664C26.8617 17.6664 25.4073 17.2988 24.0808 16.5636C22.7542 15.8124 21.6994 14.7816 20.9163 13.471C20.1491 12.1445 19.7655 10.6502 19.7655 8.98801C19.7655 7.32585 20.1491 5.8395 20.9163 4.52896C21.6994 3.20243 22.7542 2.17158 24.0808 1.43639C25.4073 0.70121 26.8617 0.333618 28.4439 0.333618C30.0421 0.333618 31.4965 0.70121 32.8071 1.43639C34.1336 2.17158 35.1804 3.20243 35.9476 4.52896C36.7147 5.8395 37.0983 7.32585 37.0983 8.98801C37.0983 10.6502 36.7147 12.1445 35.9476 13.471C35.1804 14.7816 34.1336 15.8124 32.8071 16.5636C31.4805 17.2988 30.0262 17.6664 28.4439 17.6664ZM28.4439 13.3032C29.6426 13.3032 30.5855 12.9117 31.2728 12.1285C31.976 11.3454 32.3276 10.2986 32.3276 8.98801C32.3276 7.6455 31.976 6.59067 31.2728 5.82352C30.5855 5.04039 29.6426 4.64883 28.4439 4.64883C27.2293 4.64883 26.2783 5.04039 25.5911 5.82352C24.9038 6.59067 24.5602 7.6455 24.5602 8.98801C24.5602 10.3145 24.9038 11.3694 25.5911 12.1525C26.2783 12.9196 27.2293 13.3032 28.4439 13.3032Z" fill="#004EDA"/>
<path d="M60.5389 0.597325V17.4986H55.8401V8.17291L52.6516 17.4986H48.72L45.5076 8.10099V17.4986H40.8088V0.597325H46.4905L50.7338 11.5771L54.8812 0.597325H60.5389Z" fill="#004EDA"/>
<path d="M78.165 6.23107C78.165 7.25393 77.9253 8.1889 77.4458 9.03595C76.9823 9.86703 76.2711 10.5383 75.3122 11.0497C74.3692 11.5452 73.2105 11.7929 71.836 11.7929H69.5106V17.4986H64.8118V0.597325H71.836C73.1945 0.597325 74.3452 0.837059 75.2882 1.31653C76.2471 1.79599 76.9663 2.45926 77.4458 3.30632C77.9253 4.15338 78.165 5.12829 78.165 6.23107ZM71.3805 8.05305C72.7071 8.05305 73.3703 7.44572 73.3703 6.23107C73.3703 5.00043 72.7071 4.38512 71.3805 4.38512H69.5106V8.05305H71.3805Z" fill="#004EDA"/>
<path d="M86.3497 0.597325V17.4986H81.6509V0.597325H86.3497Z" fill="#004EDA"/>
<path d="M95.3226 0.597325V17.4986H90.6238V0.597325H95.3226Z" fill="#004EDA"/>
<path d="M111.056 0.597325V4.33717H104.295V7.30987H109.282V10.8819H104.295V17.4986H99.5966V0.597325H111.056Z" fill="#004EDA"/>
<path d="M130 0.597325L124.055 12.1285V17.4986H119.332V12.1285L113.386 0.597325H118.756L121.729 7.11808L124.702 0.597325H130Z" fill="#004EDA"/>
</svg>
